<svg width="229" height="66" viewBox="0 0 229 66" fill="none" xmlns="http://www.w3.org/2000/svg">
  <path d="M0 0H229V54C229 60.6274 223.627 66 217 66H0V0Z" fill="#2E2C30"/>
  <path d="M45.4639 35.9967V30.2194C45.4637 30.0303 45.414 29.8446 45.3197 29.6807C45.2253 29.5168 45.0898 29.3805 44.9264 29.2853L39.7847 26.2924C39.5369 26.1482 39.2554 26.0722 38.9688 26.0722C38.6821 26.0722 38.4006 26.1482 38.1528 26.2924L33.0118 29.2853C32.8484 29.3805 32.7128 29.5168 32.6185 29.6807C32.5242 29.8446 32.4745 30.0303 32.4742 30.2194V35.9967C32.4744 36.1859 32.524 36.3718 32.6184 36.5358C32.7127 36.6998 32.8483 36.8363 33.0118 36.9315L38.1535 39.9244C38.4013 40.0684 38.6828 40.1443 38.9694 40.1443C39.256 40.1443 39.5375 40.0684 39.7853 39.9244L44.9271 36.9315C45.0904 36.8362 45.2259 36.6997 45.3201 36.5357C45.4143 36.3717 45.4639 36.1859 45.4639 35.9967Z" fill="#9282FA" fill-opacity="0.4" stroke="#9282FA" stroke-width="1.5" stroke-linecap="round" stroke-linejoin="round"/>
  <path d="M32.6804 29.6289L38.9949 33.3602M38.9949 33.3602L45.3093 29.6289M38.9949 33.3602V40.1443" stroke="#9282FA" stroke-width="1.5" stroke-linecap="round" stroke-linejoin="round"/>
  <path d="M49.5 43.5H53" stroke="#9282FA" stroke-width="1.5" stroke-linecap="round"/>
  <path d="M49.5 43.4194L49.5 35" stroke="#9282FA" stroke-width="1.5" stroke-linecap="round"/>
  <path d="M53 43.5L47.375 49L42 43.5" stroke="#9282FA" stroke-width="1.5" stroke-linecap="round" stroke-linejoin="round"/>
  <path d="M28.5 22.5H25" stroke="#9282FA" stroke-width="1.5" stroke-linecap="round"/>
  <path d="M28.5 22.5806L28.5 31" stroke="#9282FA" stroke-width="1.5" stroke-linecap="round"/>
  <path d="M25 22.5L30.625 17L36 22.5" stroke="#9282FA" stroke-width="1.5" stroke-linecap="round" stroke-linejoin="round"/>
  <path d="M63.0133 39V28.6H65.2533V37.24H69.6V39H63.0133ZM74.9271 39.1867C73.8249 39.1867 72.9049 38.9689 72.1671 38.5333C71.4382 38.0889 70.8915 37.4622 70.5271 36.6533C70.1715 35.8444 69.9938 34.8933 69.9938 33.8C69.9938 32.6978 70.1715 31.7467 70.5271 30.9467C70.8915 30.1378 71.4382 29.5156 72.1671 29.08C72.9049 28.6356 73.8249 28.4133 74.9271 28.4133C76.0382 28.4133 76.9582 28.6356 77.6871 29.08C78.416 29.5156 78.9582 30.1378 79.3138 30.9467C79.6782 31.7467 79.8604 32.6978 79.8604 33.8C79.8604 34.8933 79.6782 35.8444 79.3138 36.6533C78.9582 37.4622 78.416 38.0889 77.6871 38.5333C76.9582 38.9689 76.0382 39.1867 74.9271 39.1867ZM74.9271 37.5067C75.8249 37.5067 76.4826 37.1867 76.9004 36.5467C77.3271 35.8978 77.5404 34.9822 77.5404 33.8C77.5404 32.6089 77.3271 31.6933 76.9004 31.0533C76.4826 30.4133 75.8249 30.0933 74.9271 30.0933C74.0293 30.0933 73.3671 30.4133 72.9404 31.0533C72.5226 31.6933 72.3138 32.6089 72.3138 33.8C72.3138 34.9822 72.5226 35.8978 72.9404 36.5467C73.3671 37.1867 74.0293 37.5067 74.9271 37.5067ZM85.1723 39.1867C84.2212 39.1867 83.4078 38.9644 82.7323 38.52C82.0656 38.0667 81.5545 37.4356 81.199 36.6267C80.8434 35.8089 80.6656 34.8578 80.6656 33.7733C80.6656 32.6711 80.8478 31.72 81.2123 30.92C81.5856 30.12 82.1278 29.5022 82.839 29.0667C83.559 28.6311 84.4434 28.4133 85.4923 28.4133C86.399 28.4133 87.159 28.5689 87.7723 28.88C88.3856 29.1911 88.8656 29.6222 89.2123 30.1733C89.559 30.7156 89.7812 31.3467 89.879 32.0667H87.7456C87.639 31.4267 87.3945 30.9378 87.0123 30.6C86.6301 30.2622 86.1145 30.0933 85.4656 30.0933C84.6034 30.0933 83.959 30.4178 83.5323 31.0667C83.1145 31.7067 82.9056 32.6133 82.9056 33.7867C82.9056 34.9867 83.1234 35.9111 83.559 36.56C84.0034 37.2089 84.6567 37.5333 85.519 37.5333C86.239 37.5333 86.7945 37.3244 87.1856 36.9067C87.5767 36.48 87.7945 35.9067 87.839 35.1867H84.9056V33.5733H89.8923V39H88.279V37.8H87.959C87.7812 38.1556 87.4745 38.4756 87.039 38.76C86.6123 39.0444 85.9901 39.1867 85.1723 39.1867ZM91.5446 39V28.6H93.7846V39H91.5446ZM99.6369 39.2C98.828 39.2 98.1435 39.0933 97.5835 38.88C97.0324 38.6578 96.5835 38.3689 96.2369 38.0133C95.8991 37.6578 95.6458 37.2711 95.4769 36.8533C95.3169 36.4267 95.2235 36.0089 95.1969 35.6H97.2769C97.2947 35.92 97.3924 36.2267 97.5702 36.52C97.748 36.8133 98.0147 37.0533 98.3702 37.24C98.7258 37.4267 99.1702 37.52 99.7035 37.52C100.281 37.52 100.708 37.4044 100.984 37.1733C101.268 36.9333 101.41 36.6222 101.41 36.24C101.41 35.8756 101.286 35.5778 101.037 35.3467C100.797 35.1156 100.477 34.9333 100.077 34.8L98.5702 34.2933C98.0902 34.1333 97.628 33.9378 97.1835 33.7067C96.748 33.4667 96.388 33.1556 96.1035 32.7733C95.8191 32.3822 95.6769 31.8844 95.6769 31.28C95.6769 30.6578 95.8324 30.1333 96.1435 29.7067C96.4635 29.28 96.8991 28.9556 97.4502 28.7333C98.0102 28.5111 98.6502 28.4 99.3702 28.4C100.295 28.4 101.024 28.5556 101.557 28.8667C102.09 29.1778 102.477 29.5733 102.717 30.0533C102.966 30.5244 103.117 31.0178 103.17 31.5333H101.09C101.072 31.2844 101.001 31.0489 100.877 30.8267C100.761 30.5956 100.575 30.4089 100.317 30.2667C100.059 30.1244 99.7124 30.0533 99.2769 30.0533C98.788 30.0533 98.4235 30.1556 98.1835 30.36C97.9524 30.5644 97.8369 30.8222 97.8369 31.1333C97.8369 31.4711 97.9569 31.7422 98.1969 31.9467C98.4458 32.1511 98.7747 32.3244 99.1835 32.4667L100.69 32.9733C101.179 33.1333 101.641 33.3333 102.077 33.5733C102.512 33.8133 102.868 34.1333 103.144 34.5333C103.428 34.9244 103.57 35.44 103.57 36.08C103.57 37.0489 103.224 37.8133 102.53 38.3733C101.846 38.9244 100.881 39.2 99.6369 39.2ZM106.668 39V30.36H103.588V28.6H111.988V30.36H108.908V39H106.668ZM113.404 39V28.6H115.644V39H113.404ZM121.816 39.2C120.305 39.2 119.132 38.7244 118.296 37.7733C117.47 36.8222 117.056 35.4978 117.056 33.8C117.056 32.12 117.465 30.8 118.283 29.84C119.101 28.88 120.274 28.4 121.803 28.4C122.718 28.4 123.501 28.5733 124.15 28.92C124.798 29.2578 125.305 29.7289 125.67 30.3333C126.034 30.9378 126.247 31.6311 126.31 32.4133H124.083C124.012 31.6844 123.776 31.1156 123.376 30.7067C122.976 30.2889 122.456 30.08 121.816 30.08C121.007 30.08 120.398 30.4044 119.99 31.0533C119.581 31.7022 119.376 32.6222 119.376 33.8133C119.376 35.0489 119.585 35.9778 120.003 36.6C120.43 37.2133 121.03 37.52 121.803 37.52C122.47 37.52 122.998 37.3067 123.39 36.88C123.79 36.4533 124.021 35.8889 124.083 35.1867H126.31C126.247 35.9689 126.034 36.6622 125.67 37.2667C125.305 37.8711 124.798 38.3467 124.15 38.6933C123.51 39.0311 122.732 39.2 121.816 39.2ZM131.496 39.2C130.687 39.2 130.003 39.0933 129.443 38.88C128.892 38.6578 128.443 38.3689 128.096 38.0133C127.758 37.6578 127.505 37.2711 127.336 36.8533C127.176 36.4267 127.083 36.0089 127.056 35.6H129.136C129.154 35.92 129.252 36.2267 129.43 36.52C129.607 36.8133 129.874 37.0533 130.23 37.24C130.585 37.4267 131.03 37.52 131.563 37.52C132.141 37.52 132.567 37.4044 132.843 37.1733C133.127 36.9333 133.27 36.6222 133.27 36.24C133.27 35.8756 133.145 35.5778 132.896 35.3467C132.656 35.1156 132.336 34.9333 131.936 34.8L130.43 34.2933C129.95 34.1333 129.487 33.9378 129.043 33.7067C128.607 33.4667 128.247 33.1556 127.963 32.7733C127.678 32.3822 127.536 31.8844 127.536 31.28C127.536 30.6578 127.692 30.1333 128.003 29.7067C128.323 29.28 128.758 28.9556 129.31 28.7333C129.87 28.5111 130.51 28.4 131.23 28.4C132.154 28.4 132.883 28.5556 133.416 28.8667C133.95 29.1778 134.336 29.5733 134.576 30.0533C134.825 30.5244 134.976 31.0178 135.03 31.5333H132.95C132.932 31.2844 132.861 31.0489 132.736 30.8267C132.621 30.5956 132.434 30.4089 132.176 30.2667C131.918 30.1244 131.572 30.0533 131.136 30.0533C130.647 30.0533 130.283 30.1556 130.043 30.36C129.812 30.5644 129.696 30.8222 129.696 31.1333C129.696 31.4711 129.816 31.7422 130.056 31.9467C130.305 32.1511 130.634 32.3244 131.043 32.4667L132.55 32.9733C133.038 33.1333 133.501 33.3333 133.936 33.5733C134.372 33.8133 134.727 34.1333 135.003 34.5333C135.287 34.9244 135.43 35.44 135.43 36.08C135.43 37.0489 135.083 37.8133 134.39 38.3733C133.705 38.9244 132.741 39.2 131.496 39.2ZM144.348 39.2C142.836 39.2 141.663 38.7244 140.827 37.7733C140.001 36.8222 139.588 35.4978 139.588 33.8C139.588 32.12 139.996 30.8 140.814 29.84C141.632 28.88 142.805 28.4 144.334 28.4C145.25 28.4 146.032 28.5733 146.681 28.92C147.33 29.2578 147.836 29.7289 148.201 30.3333C148.565 30.9378 148.779 31.6311 148.841 32.4133H146.614C146.543 31.6844 146.308 31.1156 145.908 30.7067C145.508 30.2889 144.988 30.08 144.348 30.08C143.539 30.08 142.93 30.4044 142.521 31.0533C142.112 31.7022 141.908 32.6222 141.908 33.8133C141.908 35.0489 142.116 35.9778 142.534 36.6C142.961 37.2133 143.561 37.52 144.334 37.52C145.001 37.52 145.53 37.3067 145.921 36.88C146.321 36.4533 146.552 35.8889 146.614 35.1867H148.841C148.779 35.9689 148.565 36.6622 148.201 37.2667C147.836 37.8711 147.33 38.3467 146.681 38.6933C146.041 39.0311 145.263 39.2 144.348 39.2ZM154.521 39.1867C153.419 39.1867 152.499 38.9689 151.761 38.5333C151.032 38.0889 150.485 37.4622 150.121 36.6533C149.765 35.8444 149.588 34.8933 149.588 33.8C149.588 32.6978 149.765 31.7467 150.121 30.9467C150.485 30.1378 151.032 29.5156 151.761 29.08C152.499 28.6356 153.419 28.4133 154.521 28.4133C155.632 28.4133 156.552 28.6356 157.281 29.08C158.01 29.5156 158.552 30.1378 158.908 30.9467C159.272 31.7467 159.454 32.6978 159.454 33.8C159.454 34.8933 159.272 35.8444 158.908 36.6533C158.552 37.4622 158.01 38.0889 157.281 38.5333C156.552 38.9689 155.632 39.1867 154.521 39.1867ZM154.521 37.5067C155.419 37.5067 156.076 37.1867 156.494 36.5467C156.921 35.8978 157.134 34.9822 157.134 33.8C157.134 32.6089 156.921 31.6933 156.494 31.0533C156.076 30.4133 155.419 30.0933 154.521 30.0933C153.623 30.0933 152.961 30.4133 152.534 31.0533C152.116 31.6933 151.908 32.6089 151.908 33.8C151.908 34.9822 152.116 35.8978 152.534 36.5467C152.961 37.1867 153.623 37.5067 154.521 37.5067ZM160.873 39V28.6H164.739L167.966 37.24H168.286V28.6H170.313V39H166.419L163.206 30.36H162.899V39H160.873ZM174.808 39V30.36H171.728V28.6H180.128V30.36H177.048V39H174.808ZM181.545 39V28.6H185.958C186.847 28.6 187.567 28.7289 188.118 28.9867C188.678 29.2356 189.087 29.5822 189.345 30.0267C189.611 30.4622 189.745 30.9689 189.745 31.5467C189.745 32.2044 189.571 32.7733 189.225 33.2533C188.878 33.7333 188.367 34.0756 187.691 34.28L190.025 38.92V39H187.651L185.531 34.6H183.758V39H181.545ZM183.758 32.9733H185.638C186.216 32.9733 186.665 32.8756 186.985 32.68C187.313 32.4844 187.478 32.1333 187.478 31.6267C187.478 31.1111 187.313 30.76 186.985 30.5733C186.656 30.3778 186.207 30.28 185.638 30.28H183.758V32.9733ZM195.599 39.1867C194.497 39.1867 193.577 38.9689 192.839 38.5333C192.11 38.0889 191.563 37.4622 191.199 36.6533C190.843 35.8444 190.666 34.8933 190.666 33.8C190.666 32.6978 190.843 31.7467 191.199 30.9467C191.563 30.1378 192.11 29.5156 192.839 29.08C193.577 28.6356 194.497 28.4133 195.599 28.4133C196.71 28.4133 197.63 28.6356 198.359 29.08C199.088 29.5156 199.63 30.1378 199.986 30.9467C200.35 31.7467 200.532 32.6978 200.532 33.8C200.532 34.8933 200.35 35.8444 199.986 36.6533C199.63 37.4622 199.088 38.0889 198.359 38.5333C197.63 38.9689 196.71 39.1867 195.599 39.1867ZM195.599 37.5067C196.497 37.5067 197.155 37.1867 197.572 36.5467C197.999 35.8978 198.212 34.9822 198.212 33.8C198.212 32.6089 197.999 31.6933 197.572 31.0533C197.155 30.4133 196.497 30.0933 195.599 30.0933C194.701 30.0933 194.039 30.4133 193.612 31.0533C193.195 31.6933 192.986 32.6089 192.986 33.8C192.986 34.9822 193.195 35.8978 193.612 36.5467C194.039 37.1867 194.701 37.5067 195.599 37.5067ZM201.951 39V28.6H204.191V37.24H208.538V39H201.951Z" fill="#9282FA"/>
</svg>
