<svg width="38" height="42" viewBox="0 0 38 42" fill="none" xmlns="http://www.w3.org/2000/svg">
  <path d="M25.4639 23.9967V18.2194C25.4637 18.0303 25.414 17.8446 25.3197 17.6807C25.2253 17.5168 25.0898 17.3805 24.9264 17.2853L19.7847 14.2924C19.5369 14.1482 19.2554 14.0722 18.9688 14.0722C18.6821 14.0722 18.4006 14.1482 18.1528 14.2924L13.0118 17.2853C12.8484 17.3805 12.7128 17.5168 12.6185 17.6807C12.5242 17.8446 12.4745 18.0303 12.4742 18.2194V23.9967C12.4744 24.1859 12.524 24.3718 12.6184 24.5358C12.7127 24.6998 12.8483 24.8363 13.0118 24.9315L18.1535 27.9244C18.4013 28.0684 18.6828 28.1443 18.9694 28.1443C19.256 28.1443 19.5375 28.0684 19.7853 27.9244L24.9271 24.9315C25.0904 24.8362 25.2259 24.6997 25.3201 24.5357C25.4143 24.3717 25.4639 24.1859 25.4639 23.9967Z" fill="#9282FA" fill-opacity="0.4" stroke="#9282FA" stroke-width="1.5" stroke-linecap="round" stroke-linejoin="round"/>
  <path d="M12.6804 17.6289L18.9949 21.3602M18.9949 21.3602L25.3093 17.6289M18.9949 21.3602V28.1443" stroke="#9282FA" stroke-width="1.5" stroke-linecap="round" stroke-linejoin="round"/>
  <path d="M29.5 31.5H33" stroke="#9282FA" stroke-width="1.5" stroke-linecap="round"/>
  <path d="M29.5 31.4194L29.5 23" stroke="#9282FA" stroke-width="1.5" stroke-linecap="round"/>
  <path d="M33 31.5L27.375 37L22 31.5" stroke="#9282FA" stroke-width="1.5" stroke-linecap="round" stroke-linejoin="round"/>
  <path d="M8.5 10.5H5" stroke="#9282FA" stroke-width="1.5" stroke-linecap="round"/>
  <path d="M8.5 10.5806L8.49999 19" stroke="#9282FA" stroke-width="1.5" stroke-linecap="round"/>
  <path d="M5 10.5L10.625 5L16 10.5" stroke="#9282FA" stroke-width="1.5" stroke-linecap="round" stroke-linejoin="round"/>
</svg>
